<svg version="1.1" xmlns="http://www.w3.org/2000/svg" viewBox="0 0 1526.8775769760537 2400.5249539454517" width="1526.8775769760537" height="2400.5249539454517" filter="invert(93%) hue-rotate(180deg)">
  <!-- svg-source:excalidraw -->
  
  <defs>
    <style class="style-fonts">
      @font-face {
        font-family: "Virgil";
        src: url("https://excalidraw.com/Virgil.woff2");
      }
      @font-face {
        font-family: "Cascadia";
        src: url("https://excalidraw.com/Cascadia.woff2");
      }
      @font-face {
        font-family: "Assistant";
        src: url("https://excalidraw.com/Assistant-Regular.woff2");
      }
    </style>
    
  </defs>
  <rect x="0" y="0" width="1526.8775769760537" height="2400.5249539454517" fill="#ffffff"></rect><g stroke-linecap="round"><g transform="translate(87.78067214613645 1937.0963825168803) rotate(0 115 0)"><path d="M-0.68 -0.04 C37.98 0.06, 192.68 1.22, 231.06 1.06 M1.16 -1.11 C39.83 -1.37, 192.75 -0.65, 230.68 -0.51" stroke="#1e1e1e" stroke-width="2" fill="none"></path></g></g><mask></mask><g stroke-linecap="round"><g transform="translate(88.73471983319655 2069.09638251688) rotate(0 116.5 -0.5)"><path d="M0.08 -0.25 C38.82 -0.61, 194.19 -1.32, 232.84 -1.52 M-1.33 -1.43 C37.19 -1.69, 192.54 -0.44, 231.8 -0.26" stroke="#1e1e1e" stroke-width="1" fill="none"></path></g></g><mask></mask><g stroke-linecap="round"><g transform="translate(50.159454123458545 801.7876910130851) rotate(0 116.5 -0.5)"><path d="M0.64 0 C39.74 0.02, 194.93 -0.2, 233.7 -0.18 M-0.48 -1.04 C38.6 -1.34, 194.27 -1.77, 233.12 -1.88" stroke="#1e1e1e" stroke-width="1" fill="none"></path></g></g><mask></mask><g stroke-linecap="round"><g transform="translate(54.63953756553383 607.5507783698679) rotate(0 116.5 -0.5)"><path d="M0.5 -0.75 C39.43 -1.09, 193.93 -1.01, 232.6 -0.9 M-0.7 1.46 C38.12 1.86, 192.74 1.27, 231.44 0.68" stroke="#1e1e1e" stroke-width="1" fill="none"></path></g></g><mask></mask><g stroke-linecap="round" transform="translate(40.7576959896665 1873.1193586733502) rotate(0 163.49999999999997 256.99999999999994)"><path d="M32 0 C122.48 1.32, 214.64 2.51, 295 0 M32 0 C98.02 -0.39, 163.58 0.22, 295 0 M295 0 C317.92 -1.45, 325.04 8.7, 327 32 M295 0 C316.47 1.86, 324.82 12.02, 327 32 M327 32 C327.88 159.29, 327.06 285.03, 327 482 M327 32 C325.9 127.09, 326.28 223.16, 327 482 M327 482 C327.33 502.91, 315.04 514.6, 295 514 M327 482 C325.35 503.17, 317.17 514.43, 295 514 M295 514 C235.5 515.53, 177.72 514.86, 32 514 M295 514 C214.97 514.6, 134.96 514.89, 32 514 M32 514 C11.87 512.31, 0.82 505.09, 0 482 M32 514 C9.38 513.67, -0.25 501.34, 0 482 M0 482 C-1.19 310.72, -0.89 138.13, 0 32 M0 482 C0.27 382.6, 1.16 283.54, 0 32 M0 32 C0.1 9.89, 11.39 -0.06, 32 0 M0 32 C-0.55 9.38, 10.15 -0.99, 32 0" stroke="#1e1e1e" stroke-width="2" fill="none"></path></g><g transform="translate(137.78067214613645 1906.0963825168803) rotate(0 64.0299301147461 12.5)"><text x="0" y="17.52" font-family="Virgil, Segoe UI Emoji" font-size="20px" fill="#1e1e1e" text-anchor="start" style="white-space: pre;" direction="ltr" dominant-baseline="alphabetic">Tic Tac Toe</text></g><g transform="translate(92.87257677201626 1961.0963825168803) rotate(0 83.37989807128906 50)"><text x="0" y="17.52" font-family="Virgil, Segoe UI Emoji" font-size="20px" fill="#1e1e1e" text-anchor="start" style="white-space: pre;" direction="ltr" dominant-baseline="alphabetic">Private: </text><text x="0" y="42.519999999999996" font-family="Virgil, Segoe UI Emoji" font-size="20px" fill="#1e1e1e" text-anchor="start" style="white-space: pre;" direction="ltr" dominant-baseline="alphabetic">- Board</text><text x="0" y="67.52" font-family="Virgil, Segoe UI Emoji" font-size="20px" fill="#1e1e1e" text-anchor="start" style="white-space: pre;" direction="ltr" dominant-baseline="alphabetic">- player notation</text><text x="0" y="92.52" font-family="Virgil, Segoe UI Emoji" font-size="20px" fill="#1e1e1e" text-anchor="start" style="white-space: pre;" direction="ltr" dominant-baseline="alphabetic">- turn </text></g><g transform="translate(84.87257677201626 2106.09638251688) rotate(0 109.93986511230469 125)"><text x="0" y="17.52" font-family="Virgil, Segoe UI Emoji" font-size="20px" fill="#1e1e1e" text-anchor="start" style="white-space: pre;" direction="ltr" dominant-baseline="alphabetic">- TTT and init</text><text x="0" y="42.519999999999996" font-family="Virgil, Segoe UI Emoji" font-size="20px" fill="#1e1e1e" text-anchor="start" style="white-space: pre;" direction="ltr" dominant-baseline="alphabetic">- play_next</text><text x="0" y="67.52" font-family="Virgil, Segoe UI Emoji" font-size="20px" fill="#1e1e1e" text-anchor="start" style="white-space: pre;" direction="ltr" dominant-baseline="alphabetic">- get_turn</text><text x="0" y="92.52" font-family="Virgil, Segoe UI Emoji" font-size="20px" fill="#1e1e1e" text-anchor="start" style="white-space: pre;" direction="ltr" dominant-baseline="alphabetic">- get player notations</text><text x="0" y="117.52" font-family="Virgil, Segoe UI Emoji" font-size="20px" fill="#1e1e1e" text-anchor="start" style="white-space: pre;" direction="ltr" dominant-baseline="alphabetic">- render board </text><text x="0" y="142.52" font-family="Virgil, Segoe UI Emoji" font-size="20px" fill="#1e1e1e" text-anchor="start" style="white-space: pre;" direction="ltr" dominant-baseline="alphabetic">- get current player</text><text x="0" y="167.52" font-family="Virgil, Segoe UI Emoji" font-size="20px" fill="#1e1e1e" text-anchor="start" style="white-space: pre;" direction="ltr" dominant-baseline="alphabetic">- get next player</text><text x="0" y="192.52" font-family="Virgil, Segoe UI Emoji" font-size="20px" fill="#1e1e1e" text-anchor="start" style="white-space: pre;" direction="ltr" dominant-baseline="alphabetic">- get valid moves </text><text x="0" y="217.52" font-family="Virgil, Segoe UI Emoji" font-size="20px" fill="#1e1e1e" text-anchor="start" style="white-space: pre;" direction="ltr" dominant-baseline="alphabetic">- simulation </text><text x="0" y="242.52" font-family="Virgil, Segoe UI Emoji" font-size="20px" fill="#1e1e1e" text-anchor="start" style="white-space: pre;" direction="ltr" dominant-baseline="alphabetic">- get board key</text></g><g transform="translate(87.87257677201626 2077.09638251688) rotate(0 39.62995147705078 12.5)"><text x="0" y="17.52" font-family="Virgil, Segoe UI Emoji" font-size="20px" fill="#1e1e1e" text-anchor="start" style="white-space: pre;" direction="ltr" dominant-baseline="alphabetic">Public : </text></g><g stroke-linecap="round" transform="translate(10 530.4208789379002) rotate(0 163.5 256.99999999999994)"><path d="M32 0 C132.42 -1.72, 229.47 -1.12, 295 0 M32 0 C131.96 1.46, 231.65 2.57, 295 0 M295 0 C317.7 1.53, 326.68 9.13, 327 32 M295 0 C314.95 2.02, 324.96 8.93, 327 32 M327 32 C325.82 186.32, 325.28 340.72, 327 482 M327 32 C327.58 181.27, 328.05 331.22, 327 482 M327 482 C328.62 501.74, 316.21 515.26, 295 514 M327 482 C326.2 504.5, 316.08 515.42, 295 514 M295 514 C211.14 515.87, 126.93 513.68, 32 514 M295 514 C212.04 515.19, 128.9 515.01, 32 514 M32 514 C8.67 514.98, -1.83 502.56, 0 482 M32 514 C10.36 515.52, -1.25 501.46, 0 482 M0 482 C-1.63 325.34, -1.94 171.37, 0 32 M0 482 C-1.91 310.57, -2.19 139.39, 0 32 M0 32 C-1 11.64, 10.91 -1.05, 32 0 M0 32 C0.36 10.48, 12.59 -0.8, 32 0" stroke="#1e1e1e" stroke-width="2" fill="none"></path></g><g transform="translate(153.84282491892537 563.39790278143) rotate(0 17.009986877441378 12.5)"><text x="0" y="17.52" font-family="Virgil, Segoe UI Emoji" font-size="20px" fill="#1e1e1e" text-anchor="start" style="white-space: pre;" direction="ltr" dominant-baseline="alphabetic">AI </text></g><g transform="translate(64.32284740551972 626.1257859625248) rotate(0 104.35987091064453 75)"><text x="0" y="17.52" font-family="Virgil, Segoe UI Emoji" font-size="20px" fill="#1e1e1e" text-anchor="start" style="white-space: pre;" direction="ltr" dominant-baseline="alphabetic">Private: </text><text x="0" y="42.519999999999996" font-family="Virgil, Segoe UI Emoji" font-size="20px" fill="#1e1e1e" text-anchor="start" style="white-space: pre;" direction="ltr" dominant-baseline="alphabetic">- Game </text><text x="0" y="67.52" font-family="Virgil, Segoe UI Emoji" font-size="20px" fill="#1e1e1e" text-anchor="start" style="white-space: pre;" direction="ltr" dominant-baseline="alphabetic">- Game states </text><text x="0" y="92.52" font-family="Virgil, Segoe UI Emoji" font-size="20px" fill="#1e1e1e" text-anchor="start" style="white-space: pre;" direction="ltr" dominant-baseline="alphabetic">- exploration factor </text><text x="0" y="117.52" font-family="Virgil, Segoe UI Emoji" font-size="20px" fill="#1e1e1e" text-anchor="start" style="white-space: pre;" direction="ltr" dominant-baseline="alphabetic">- turn </text><text x="0" y="142.52" font-family="Virgil, Segoe UI Emoji" font-size="20px" fill="#1e1e1e" text-anchor="start" style="white-space: pre;" direction="ltr" dominant-baseline="alphabetic">- simulate game </text></g><g transform="translate(51.90691415917985 846.1966511503019) rotate(0 122.17984771728518 37.5)"><text x="0" y="17.52" font-family="Virgil, Segoe UI Emoji" font-size="20px" fill="#1e1e1e" text-anchor="start" style="white-space: pre;" direction="ltr" dominant-baseline="alphabetic">- AI initialization </text><text x="0" y="42.519999999999996" font-family="Virgil, Segoe UI Emoji" font-size="20px" fill="#1e1e1e" text-anchor="start" style="white-space: pre;" direction="ltr" dominant-baseline="alphabetic">- set Exploration factor</text><text x="0" y="67.52" font-family="Virgil, Segoe UI Emoji" font-size="20px" fill="#1e1e1e" text-anchor="start" style="white-space: pre;" direction="ltr" dominant-baseline="alphabetic">- decide move </text></g><g transform="translate(54.90691415917985 819.4046177734717) rotate(0 39.62995147705078 12.5)"><text x="0" y="17.52" font-family="Virgil, Segoe UI Emoji" font-size="20px" fill="#1e1e1e" text-anchor="start" style="white-space: pre;" direction="ltr" dominant-baseline="alphabetic">Public : </text></g><g stroke-linecap="round" transform="translate(634.9567065186284 10) rotate(0 163.5 133.5113891222702)"><path d="M32 0 C127.38 -1.49, 219.76 0.53, 295 0 M32 0 C123.97 -0.41, 215.76 -0.62, 295 0 M295 0 C316.31 0.66, 328.79 12.2, 327 32 M295 0 C316.32 -2.21, 327.01 11.11, 327 32 M327 32 C326.15 92.72, 325.55 152.76, 327 235.02 M327 32 C328.26 105.24, 327.42 178.49, 327 235.02 M327 235.02 C328.53 256.6, 317.38 267.17, 295 267.02 M327 235.02 C324.93 255.89, 317.13 267.13, 295 267.02 M295 267.02 C216.62 266.78, 137.56 264.9, 32 267.02 M295 267.02 C196.47 267.43, 98.81 267.27, 32 267.02 M32 267.02 C12.31 266.04, -0.35 256.11, 0 235.02 M32 267.02 C9.37 267.95, -1.88 255.18, 0 235.02 M0 235.02 C-1.51 191.89, 0.02 151.37, 0 32 M0 235.02 C-0.37 176.88, -0.64 118.41, 0 32 M0 32 C1.03 9.44, 11.17 -1.66, 32 0 M0 32 C0.94 12.03, 9.98 1.58, 32 0" stroke="#1e1e1e" stroke-width="2" fill="none"></path></g><g transform="translate(752.2784874906586 26.401371376720363) rotate(0 30.369964599609375 12.5)"><text x="0" y="17.52" font-family="Virgil, Segoe UI Emoji" font-size="20px" fill="#1e1e1e" text-anchor="start" style="white-space: pre;" direction="ltr" dominant-baseline="alphabetic">Player</text></g><g transform="translate(684.3068581841055 84.1565588177723) rotate(0 87.36988067626953 87.5)"><text x="0" y="17.52" font-family="Virgil, Segoe UI Emoji" font-size="20px" fill="#1e1e1e" text-anchor="start" style="white-space: pre;" direction="ltr" dominant-baseline="alphabetic">Protected : </text><text x="0" y="42.519999999999996" font-family="Virgil, Segoe UI Emoji" font-size="20px" fill="#1e1e1e" text-anchor="start" style="white-space: pre;" direction="ltr" dominant-baseline="alphabetic">- name</text><text x="0" y="67.52" font-family="Virgil, Segoe UI Emoji" font-size="20px" fill="#1e1e1e" text-anchor="start" style="white-space: pre;" direction="ltr" dominant-baseline="alphabetic"></text><text x="0" y="92.52" font-family="Virgil, Segoe UI Emoji" font-size="20px" fill="#1e1e1e" text-anchor="start" style="white-space: pre;" direction="ltr" dominant-baseline="alphabetic">Public </text><text x="0" y="117.52" font-family="Virgil, Segoe UI Emoji" font-size="20px" fill="#1e1e1e" text-anchor="start" style="white-space: pre;" direction="ltr" dominant-baseline="alphabetic">- initialize player </text><text x="0" y="142.52" font-family="Virgil, Segoe UI Emoji" font-size="20px" fill="#1e1e1e" text-anchor="start" style="white-space: pre;" direction="ltr" dominant-baseline="alphabetic">- get move </text><text x="0" y="167.52" font-family="Virgil, Segoe UI Emoji" font-size="20px" fill="#1e1e1e" text-anchor="start" style="white-space: pre;" direction="ltr" dominant-baseline="alphabetic">- get name </text></g><g stroke-linecap="round" transform="translate(437.76105068351103 364.7735713096354) rotate(0 163.5 133.5113891222702)"><path d="M32 0 C99.81 -0.35, 168.41 -2.26, 295 0 M32 0 C85.25 -1.3, 139.04 -0.42, 295 0 M295 0 C314.8 -0.34, 328.84 9.13, 327 32 M295 0 C316.87 0.85, 325.99 8.37, 327 32 M327 32 C325.28 108.08, 327.4 187.32, 327 235.02 M327 32 C326.6 107.63, 326.16 181.18, 327 235.02 M327 235.02 C328.68 257, 315.83 268, 295 267.02 M327 235.02 C324.91 254.79, 314.91 266.72, 295 267.02 M295 267.02 C201.44 267.8, 108.78 268.27, 32 267.02 M295 267.02 C239.56 265.88, 182.59 265.96, 32 267.02 M32 267.02 C11.52 266.65, 1.99 256.57, 0 235.02 M32 267.02 C10.8 266.77, 0.52 254.14, 0 235.02 M0 235.02 C-1.64 164.68, -1.82 96.67, 0 32 M0 235.02 C0.2 165.18, 0.64 96.86, 0 32 M0 32 C0.96 10.54, 11.05 -0.52, 32 0 M0 32 C0.84 9.7, 12.21 1.6, 32 0" stroke="#1e1e1e" stroke-width="2" fill="none"></path></g><g transform="translate(555.0828316555412 381.17494268635573) rotate(0 47.37995147705078 12.5)"><text x="0" y="17.52" font-family="Virgil, Segoe UI Emoji" font-size="20px" fill="#1e1e1e" text-anchor="start" style="white-space: pre;" direction="ltr" dominant-baseline="alphabetic">AI Player</text></g><g transform="translate(487.1112023489882 438.93013012740766) rotate(0 87.36988067626953 87.5)"><text x="0" y="17.52" font-family="Virgil, Segoe UI Emoji" font-size="20px" fill="#1e1e1e" text-anchor="start" style="white-space: pre;" direction="ltr" dominant-baseline="alphabetic">Protected : </text><text x="0" y="42.519999999999996" font-family="Virgil, Segoe UI Emoji" font-size="20px" fill="#1e1e1e" text-anchor="start" style="white-space: pre;" direction="ltr" dominant-baseline="alphabetic">- name</text><text x="0" y="67.52" font-family="Virgil, Segoe UI Emoji" font-size="20px" fill="#1e1e1e" text-anchor="start" style="white-space: pre;" direction="ltr" dominant-baseline="alphabetic"></text><text x="0" y="92.52" font-family="Virgil, Segoe UI Emoji" font-size="20px" fill="#1e1e1e" text-anchor="start" style="white-space: pre;" direction="ltr" dominant-baseline="alphabetic">Public </text><text x="0" y="117.52" font-family="Virgil, Segoe UI Emoji" font-size="20px" fill="#1e1e1e" text-anchor="start" style="white-space: pre;" direction="ltr" dominant-baseline="alphabetic">- initialize player </text><text x="0" y="142.52" font-family="Virgil, Segoe UI Emoji" font-size="20px" fill="#1e1e1e" text-anchor="start" style="white-space: pre;" direction="ltr" dominant-baseline="alphabetic">- get move </text><text x="0" y="167.52" font-family="Virgil, Segoe UI Emoji" font-size="20px" fill="#1e1e1e" text-anchor="start" style="white-space: pre;" direction="ltr" dominant-baseline="alphabetic">- get name </text></g><g stroke-linecap="round" transform="translate(858.8372318603831 366.4857450762304) rotate(0 163.5 133.5113891222702)"><path d="M32 0 C114.06 -0.17, 194.86 -0.72, 295 0 M32 0 C100.41 0.68, 169.21 0.91, 295 0 M295 0 C314.51 -1.93, 326.69 12.63, 327 32 M295 0 C317.76 1.28, 327.4 10.25, 327 32 M327 32 C329.54 98.77, 328.91 163.61, 327 235.02 M327 32 C326.67 99.35, 326.64 167.62, 327 235.02 M327 235.02 C327.16 257.48, 317.04 265.6, 295 267.02 M327 235.02 C328.9 254.18, 315.43 269.06, 295 267.02 M295 267.02 C205.61 264.59, 119.31 264.04, 32 267.02 M295 267.02 C226.45 266.21, 158.15 265.48, 32 267.02 M32 267.02 C9.3 265.8, -0.72 255.02, 0 235.02 M32 267.02 C12.78 265.3, 0.35 256.61, 0 235.02 M0 235.02 C-0.4 185.25, 0.69 135.77, 0 32 M0 235.02 C0.35 168.46, 0.78 103.27, 0 32 M0 32 C-1.85 11.41, 9.77 -1.8, 32 0 M0 32 C0.37 10.49, 9.11 -0.64, 32 0" stroke="#1e1e1e" stroke-width="2" fill="none"></path></g><g transform="translate(952.9530993788803 387.85981219299356) rotate(0 64.22992706298828 12.5)"><text x="0" y="17.52" font-family="Virgil, Segoe UI Emoji" font-size="20px" fill="#1e1e1e" text-anchor="start" style="white-space: pre;" direction="ltr" dominant-baseline="alphabetic">Human Player</text></g><g transform="translate(908.1873835258602 440.6423038940027) rotate(0 87.36988067626953 87.5)"><text x="0" y="17.52" font-family="Virgil, Segoe UI Emoji" font-size="20px" fill="#1e1e1e" text-anchor="start" style="white-space: pre;" direction="ltr" dominant-baseline="alphabetic">Protected : </text><text x="0" y="42.519999999999996" font-family="Virgil, Segoe UI Emoji" font-size="20px" fill="#1e1e1e" text-anchor="start" style="white-space: pre;" direction="ltr" dominant-baseline="alphabetic">- name</text><text x="0" y="67.52" font-family="Virgil, Segoe UI Emoji" font-size="20px" fill="#1e1e1e" text-anchor="start" style="white-space: pre;" direction="ltr" dominant-baseline="alphabetic"></text><text x="0" y="92.52" font-family="Virgil, Segoe UI Emoji" font-size="20px" fill="#1e1e1e" text-anchor="start" style="white-space: pre;" direction="ltr" dominant-baseline="alphabetic">Public </text><text x="0" y="117.52" font-family="Virgil, Segoe UI Emoji" font-size="20px" fill="#1e1e1e" text-anchor="start" style="white-space: pre;" direction="ltr" dominant-baseline="alphabetic">- initialize player </text><text x="0" y="142.52" font-family="Virgil, Segoe UI Emoji" font-size="20px" fill="#1e1e1e" text-anchor="start" style="white-space: pre;" direction="ltr" dominant-baseline="alphabetic">- get move </text><text x="0" y="167.52" font-family="Virgil, Segoe UI Emoji" font-size="20px" fill="#1e1e1e" text-anchor="start" style="white-space: pre;" direction="ltr" dominant-baseline="alphabetic">- get name </text></g><g stroke-linecap="round"><g transform="translate(493.1632912617681 1944.2392396597374) rotate(0 115 0)"><path d="M-0.29 -0.97 C37.97 -1.28, 190.78 -1.19, 229.18 -1.04 M1.76 1.14 C40.44 0.86, 193.53 -0.06, 231.46 -0.05" stroke="#1e1e1e" stroke-width="2" fill="none"></path></g></g><mask></mask><g stroke-linecap="round" transform="translate(432.7347198331968 1876.5249539454517) rotate(0 163.5 256.99999999999994)"><path d="M32 0 C86.63 0.33, 137.69 -0.37, 295 0 M32 0 C87.49 0.1, 144.57 0.29, 295 0 M295 0 C315.74 -1.91, 325.26 10.73, 327 32 M295 0 C316.67 1.05, 325.72 8.81, 327 32 M327 32 C325.62 208.56, 324.65 384.72, 327 482 M327 32 C326.36 191.49, 326.28 351.89, 327 482 M327 482 C326.02 505, 316.77 515.9, 295 514 M327 482 C327.87 502.89, 316.62 515.48, 295 514 M295 514 C206.22 516.12, 113.78 517.05, 32 514 M295 514 C203.31 513.46, 112.11 513.33, 32 514 M32 514 C8.8 513.8, 0.54 504.83, 0 482 M32 514 C9.29 513.16, 1.32 503.69, 0 482 M0 482 C-2.57 377.9, -1.39 273.89, 0 32 M0 482 C0.07 310.54, 0.03 139.61, 0 32 M0 32 C1.83 12.22, 12.17 -1.5, 32 0 M0 32 C1.01 10.03, 9.75 -2.07, 32 0" stroke="#1e1e1e" stroke-width="2" fill="none"></path></g><g transform="translate(496.020434118911 1908.953525374023) rotate(0 98.49989318847656 12.5)"><text x="0" y="17.52" font-family="Virgil, Segoe UI Emoji" font-size="20px" fill="#1e1e1e" text-anchor="start" style="white-space: pre;" direction="ltr" dominant-baseline="alphabetic">Tic Tac Toe Board</text></g><g transform="translate(488.1632912617681 2011.810668231166) rotate(0 90.64988708496094 112.5)"><text x="0" y="17.52" font-family="Virgil, Segoe UI Emoji" font-size="20px" fill="#1e1e1e" text-anchor="start" style="white-space: pre;" direction="ltr" dominant-baseline="alphabetic">- Board init</text><text x="0" y="42.519999999999996" font-family="Virgil, Segoe UI Emoji" font-size="20px" fill="#1e1e1e" text-anchor="start" style="white-space: pre;" direction="ltr" dominant-baseline="alphabetic">- display</text><text x="0" y="67.52" font-family="Virgil, Segoe UI Emoji" font-size="20px" fill="#1e1e1e" text-anchor="start" style="white-space: pre;" direction="ltr" dominant-baseline="alphabetic">- check Terminal</text><text x="0" y="92.52" font-family="Virgil, Segoe UI Emoji" font-size="20px" fill="#1e1e1e" text-anchor="start" style="white-space: pre;" direction="ltr" dominant-baseline="alphabetic">- playable</text><text x="0" y="117.52" font-family="Virgil, Segoe UI Emoji" font-size="20px" fill="#1e1e1e" text-anchor="start" style="white-space: pre;" direction="ltr" dominant-baseline="alphabetic">- get board key</text><text x="0" y="142.52" font-family="Virgil, Segoe UI Emoji" font-size="20px" fill="#1e1e1e" text-anchor="start" style="white-space: pre;" direction="ltr" dominant-baseline="alphabetic">- get valid moves </text><text x="0" y="167.52" font-family="Virgil, Segoe UI Emoji" font-size="20px" fill="#1e1e1e" text-anchor="start" style="white-space: pre;" direction="ltr" dominant-baseline="alphabetic">- playable</text><text x="0" y="192.52" font-family="Virgil, Segoe UI Emoji" font-size="20px" fill="#1e1e1e" text-anchor="start" style="white-space: pre;" direction="ltr" dominant-baseline="alphabetic">- Un-Move </text><text x="0" y="217.52" font-family="Virgil, Segoe UI Emoji" font-size="20px" fill="#1e1e1e" text-anchor="start" style="white-space: pre;" direction="ltr" dominant-baseline="alphabetic">- Move</text></g><g transform="translate(491.1632912617681 1982.810668231166) rotate(0 39.62995147705078 12.5)"><text x="0" y="17.52" font-family="Virgil, Segoe UI Emoji" font-size="20px" fill="#1e1e1e" text-anchor="start" style="white-space: pre;" direction="ltr" dominant-baseline="alphabetic">Public : </text></g><g stroke-linecap="round"><g transform="translate(462.64639757237603 1330.3906284217915) rotate(0 116.50000000000006 -0.5)"><path d="M0.89 -0.17 C39.78 -0.11, 193.74 -0.41, 232.4 -0.73 M-0.1 -1.31 C39.27 -1.53, 196.11 -2.7, 234.79 -2.72" stroke="#1e1e1e" stroke-width="1" fill="none"></path></g></g><mask></mask><g transform="translate(477.8013334857459 1239.120137422175) rotate(0 64.90991973876953 37.5)"><text x="0" y="17.52" font-family="Virgil, Segoe UI Emoji" font-size="20px" fill="#1e1e1e" text-anchor="start" style="white-space: pre;" direction="ltr" dominant-baseline="alphabetic">Protected : </text><text x="0" y="42.519999999999996" font-family="Virgil, Segoe UI Emoji" font-size="20px" fill="#1e1e1e" text-anchor="start" style="white-space: pre;" direction="ltr" dominant-baseline="alphabetic">- num players</text><text x="0" y="67.52" font-family="Virgil, Segoe UI Emoji" font-size="20px" fill="#1e1e1e" text-anchor="start" style="white-space: pre;" direction="ltr" dominant-baseline="alphabetic">- turn </text></g><g transform="translate(473.18158983226635 1373.1343042959836) rotate(0 109.93986511230469 125)"><text x="0" y="17.52" font-family="Virgil, Segoe UI Emoji" font-size="20px" fill="#1e1e1e" text-anchor="start" style="white-space: pre;" direction="ltr" dominant-baseline="alphabetic">- play_next</text><text x="0" y="42.519999999999996" font-family="Virgil, Segoe UI Emoji" font-size="20px" fill="#1e1e1e" text-anchor="start" style="white-space: pre;" direction="ltr" dominant-baseline="alphabetic">- get_turn</text><text x="0" y="67.52" font-family="Virgil, Segoe UI Emoji" font-size="20px" fill="#1e1e1e" text-anchor="start" style="white-space: pre;" direction="ltr" dominant-baseline="alphabetic">- get player notations</text><text x="0" y="92.52" font-family="Virgil, Segoe UI Emoji" font-size="20px" fill="#1e1e1e" text-anchor="start" style="white-space: pre;" direction="ltr" dominant-baseline="alphabetic">- render board </text><text x="0" y="117.52" font-family="Virgil, Segoe UI Emoji" font-size="20px" fill="#1e1e1e" text-anchor="start" style="white-space: pre;" direction="ltr" dominant-baseline="alphabetic">- get current player</text><text x="0" y="142.52" font-family="Virgil, Segoe UI Emoji" font-size="20px" fill="#1e1e1e" text-anchor="start" style="white-space: pre;" direction="ltr" dominant-baseline="alphabetic">- get next player</text><text x="0" y="167.52" font-family="Virgil, Segoe UI Emoji" font-size="20px" fill="#1e1e1e" text-anchor="start" style="white-space: pre;" direction="ltr" dominant-baseline="alphabetic">- get valid moves </text><text x="0" y="192.52" font-family="Virgil, Segoe UI Emoji" font-size="20px" fill="#1e1e1e" text-anchor="start" style="white-space: pre;" direction="ltr" dominant-baseline="alphabetic">- simulate </text><text x="0" y="217.52" font-family="Virgil, Segoe UI Emoji" font-size="20px" fill="#1e1e1e" text-anchor="start" style="white-space: pre;" direction="ltr" dominant-baseline="alphabetic">- get board key</text><text x="0" y="242.52" font-family="Virgil, Segoe UI Emoji" font-size="20px" fill="#1e1e1e" text-anchor="start" style="white-space: pre;" direction="ltr" dominant-baseline="alphabetic">- get winner </text></g><g transform="translate(476.18158983226635 1344.1343042959836) rotate(0 39.62995147705078 12.5)"><text x="0" y="17.52" font-family="Virgil, Segoe UI Emoji" font-size="20px" fill="#1e1e1e" text-anchor="start" style="white-space: pre;" direction="ltr" dominant-baseline="alphabetic">Public : </text></g><g stroke-linecap="round" transform="translate(418.631702149637 1158.6213518660893) rotate(0 163.5 256.99999999999994)"><path d="M32 0 C104.12 1.68, 178.51 2.1, 295 0 M32 0 C100.83 2.25, 169.31 2.47, 295 0 M295 0 C315.29 0.42, 325.1 12.54, 327 32 M295 0 C317.09 2.28, 325.31 12.52, 327 32 M327 32 C330.02 194.8, 329.91 358.26, 327 482 M327 32 C327.57 168.06, 327.76 304.45, 327 482 M327 482 C326.33 503.86, 316.8 513, 295 514 M327 482 C329.12 504.32, 315.55 513.6, 295 514 M295 514 C221.9 516.34, 148.09 516.69, 32 514 M295 514 C212.65 514.86, 130.75 513.95, 32 514 M32 514 C11.12 514.27, -1.52 504.27, 0 482 M32 514 C11.22 512.88, 1.51 501.86, 0 482 M0 482 C1.45 303.98, 2.56 125.69, 0 32 M0 482 C-2.2 309.72, -1.34 137.77, 0 32 M0 32 C-0.83 11.13, 10.03 -0.49, 32 0 M0 32 C2.12 9.1, 12.47 0.7, 32 0" stroke="#1e1e1e" stroke-width="2" fill="none"></path></g><g transform="translate(520.8807055532674 1188.494856971535) rotate(0 54.529937744140625 12.5)"><text x="0" y="17.52" font-family="Virgil, Segoe UI Emoji" font-size="20px" fill="#1e1e1e" text-anchor="start" style="white-space: pre;" direction="ltr" dominant-baseline="alphabetic">Game Pack</text></g><g stroke-linecap="round"><g transform="translate(891.9010927618374 1332.2008596814167) rotate(0 116.5 -0.5)"><path d="M0.06 0.54 C38.89 0.42, 194.28 -0.64, 232.93 -0.86 M-1.37 -0.22 C37.3 -0.12, 192.67 0.61, 231.94 0.76" stroke="#1e1e1e" stroke-width="1" fill="none"></path></g></g><mask></mask><g transform="translate(907.0560286752075 1240.9303686818005) rotate(0 83.60990142822266 37.5)"><text x="0" y="17.52" font-family="Virgil, Segoe UI Emoji" font-size="20px" fill="#1e1e1e" text-anchor="start" style="white-space: pre;" direction="ltr" dominant-baseline="alphabetic">Protected : </text><text x="0" y="42.519999999999996" font-family="Virgil, Segoe UI Emoji" font-size="20px" fill="#1e1e1e" text-anchor="start" style="white-space: pre;" direction="ltr" dominant-baseline="alphabetic">- game Board</text><text x="0" y="67.52" font-family="Virgil, Segoe UI Emoji" font-size="20px" fill="#1e1e1e" text-anchor="start" style="white-space: pre;" direction="ltr" dominant-baseline="alphabetic">- remaining moves</text></g><g transform="translate(902.4362850217278 1374.944535555609) rotate(0 110.15986633300781 112.5)"><text x="0" y="17.52" font-family="Virgil, Segoe UI Emoji" font-size="20px" fill="#1e1e1e" text-anchor="start" style="white-space: pre;" direction="ltr" dominant-baseline="alphabetic">- init</text><text x="0" y="42.519999999999996" font-family="Virgil, Segoe UI Emoji" font-size="20px" fill="#1e1e1e" text-anchor="start" style="white-space: pre;" direction="ltr" dominant-baseline="alphabetic">- display</text><text x="0" y="67.52" font-family="Virgil, Segoe UI Emoji" font-size="20px" fill="#1e1e1e" text-anchor="start" style="white-space: pre;" direction="ltr" dominant-baseline="alphabetic">- playable </text><text x="0" y="92.52" font-family="Virgil, Segoe UI Emoji" font-size="20px" fill="#1e1e1e" text-anchor="start" style="white-space: pre;" direction="ltr" dominant-baseline="alphabetic">- move</text><text x="0" y="117.52" font-family="Virgil, Segoe UI Emoji" font-size="20px" fill="#1e1e1e" text-anchor="start" style="white-space: pre;" direction="ltr" dominant-baseline="alphabetic">- move</text><text x="0" y="142.52" font-family="Virgil, Segoe UI Emoji" font-size="20px" fill="#1e1e1e" text-anchor="start" style="white-space: pre;" direction="ltr" dominant-baseline="alphabetic">- get_valid moves</text><text x="0" y="167.52" font-family="Virgil, Segoe UI Emoji" font-size="20px" fill="#1e1e1e" text-anchor="start" style="white-space: pre;" direction="ltr" dominant-baseline="alphabetic">- get remaining moves</text><text x="0" y="192.52" font-family="Virgil, Segoe UI Emoji" font-size="20px" fill="#1e1e1e" text-anchor="start" style="white-space: pre;" direction="ltr" dominant-baseline="alphabetic">- set remaining moves </text><text x="0" y="217.52" font-family="Virgil, Segoe UI Emoji" font-size="20px" fill="#1e1e1e" text-anchor="start" style="white-space: pre;" direction="ltr" dominant-baseline="alphabetic">- get board key </text></g><g transform="translate(905.4362850217278 1345.944535555609) rotate(0 39.62995147705078 12.5)"><text x="0" y="17.52" font-family="Virgil, Segoe UI Emoji" font-size="20px" fill="#1e1e1e" text-anchor="start" style="white-space: pre;" direction="ltr" dominant-baseline="alphabetic">Public : </text></g><g stroke-linecap="round" transform="translate(847.8863973390985 1160.431583125715) rotate(0 163.5 256.99999999999994)"><path d="M32 0 C121.3 0.05, 212.33 -0.34, 295 0 M32 0 C117.81 -0.42, 205.17 -0.34, 295 0 M295 0 C315.8 -0.89, 327.54 9.95, 327 32 M295 0 C316.69 1.36, 328.38 10.89, 327 32 M327 32 C326.93 124.68, 326.14 219, 327 482 M327 32 C326.07 168.35, 326.29 305.05, 327 482 M327 482 C327.17 501.55, 317.39 513.8, 295 514 M327 482 C326.38 502.78, 317.95 513.79, 295 514 M295 514 C235.68 513.25, 172.28 511.49, 32 514 M295 514 C238.05 514.87, 180.81 515.07, 32 514 M32 514 C8.92 513.32, -0.66 501.89, 0 482 M32 514 C10.15 513.71, -0.5 501.47, 0 482 M0 482 C1.4 326.64, 1.21 169.02, 0 32 M0 482 C-1.56 387.09, -2.3 292.78, 0 32 M0 32 C0.22 12.43, 9.57 1.26, 32 0 M0 32 C0.92 12.18, 8.69 -1.93, 32 0" stroke="#1e1e1e" stroke-width="2" fill="none"></path></g><g transform="translate(950.135400742729 1190.3050882311604) rotate(0 60.829933166503906 12.5)"><text x="0" y="17.52" font-family="Virgil, Segoe UI Emoji" font-size="20px" fill="#1e1e1e" text-anchor="start" style="white-space: pre;" direction="ltr" dominant-baseline="alphabetic">Game Board</text></g><g stroke-linecap="round" transform="translate(1189.8775769760537 1872.2392396597374) rotate(0 163.5 256.99999999999994)"><path d="M32 0 C105.72 -1.24, 183.41 -0.92, 295 0 M32 0 C99.86 -0.19, 165.91 0.03, 295 0 M295 0 C315.58 -0.17, 327.61 10.89, 327 32 M295 0 C318.37 -0.25, 328.93 10.34, 327 32 M327 32 C325.32 169.43, 325.44 306.65, 327 482 M327 32 C324.64 194.4, 324.72 356.88, 327 482 M327 482 C327.87 504.92, 315.4 513.64, 295 514 M327 482 C329.17 501.84, 316.31 515.06, 295 514 M295 514 C242.69 513.48, 186.69 515.45, 32 514 M295 514 C219.23 514.92, 144.58 515.14, 32 514 M32 514 C12.21 514.69, 1.79 502.94, 0 482 M32 514 C10.27 515.66, 0.62 502.44, 0 482 M0 482 C0.08 367.57, 0.08 251.22, 0 32 M0 482 C0.5 320.1, 0.64 157.79, 0 32 M0 32 C0.54 10.29, 10.87 -0.12, 32 0 M0 32 C-1.95 11.06, 10.77 0.98, 32 0" stroke="#1e1e1e" stroke-width="2" fill="none"></path></g><g transform="translate(1253.1632912617679 1904.667811088309) rotate(0 78.32992553710938 12.5)"><text x="0" y="17.52" font-family="Virgil, Segoe UI Emoji" font-size="20px" fill="#1e1e1e" text-anchor="start" style="white-space: pre;" direction="ltr" dominant-baseline="alphabetic">Connect4 Board</text></g><g stroke-linecap="round"><g transform="translate(1234.2347198331963 1937.09638251688) rotate(0 115 0)"><path d="M-0.36 0.5 C37.97 0.52, 192.53 1.07, 230.8 0.92 M1.66 -0.29 C39.83 -0.66, 191.92 -0.89, 230.27 -0.73" stroke="#1e1e1e" stroke-width="2" fill="none"></path></g></g><mask></mask><g transform="translate(1245.306148404625 2007.524953945452) rotate(0 90.64988708496094 112.5)"><text x="0" y="17.52" font-family="Virgil, Segoe UI Emoji" font-size="20px" fill="#1e1e1e" text-anchor="start" style="white-space: pre;" direction="ltr" dominant-baseline="alphabetic">- Board init</text><text x="0" y="42.519999999999996" font-family="Virgil, Segoe UI Emoji" font-size="20px" fill="#1e1e1e" text-anchor="start" style="white-space: pre;" direction="ltr" dominant-baseline="alphabetic">- display</text><text x="0" y="67.52" font-family="Virgil, Segoe UI Emoji" font-size="20px" fill="#1e1e1e" text-anchor="start" style="white-space: pre;" direction="ltr" dominant-baseline="alphabetic">- check Terminal</text><text x="0" y="92.52" font-family="Virgil, Segoe UI Emoji" font-size="20px" fill="#1e1e1e" text-anchor="start" style="white-space: pre;" direction="ltr" dominant-baseline="alphabetic">- playable</text><text x="0" y="117.52" font-family="Virgil, Segoe UI Emoji" font-size="20px" fill="#1e1e1e" text-anchor="start" style="white-space: pre;" direction="ltr" dominant-baseline="alphabetic">- get board key</text><text x="0" y="142.52" font-family="Virgil, Segoe UI Emoji" font-size="20px" fill="#1e1e1e" text-anchor="start" style="white-space: pre;" direction="ltr" dominant-baseline="alphabetic">- get valid moves </text><text x="0" y="167.52" font-family="Virgil, Segoe UI Emoji" font-size="20px" fill="#1e1e1e" text-anchor="start" style="white-space: pre;" direction="ltr" dominant-baseline="alphabetic">- playable</text><text x="0" y="192.52" font-family="Virgil, Segoe UI Emoji" font-size="20px" fill="#1e1e1e" text-anchor="start" style="white-space: pre;" direction="ltr" dominant-baseline="alphabetic">- Un-Move </text><text x="0" y="217.52" font-family="Virgil, Segoe UI Emoji" font-size="20px" fill="#1e1e1e" text-anchor="start" style="white-space: pre;" direction="ltr" dominant-baseline="alphabetic">- Move</text></g><g transform="translate(1248.306148404625 1978.524953945452) rotate(0 39.62995147705078 12.5)"><text x="0" y="17.52" font-family="Virgil, Segoe UI Emoji" font-size="20px" fill="#1e1e1e" text-anchor="start" style="white-space: pre;" direction="ltr" dominant-baseline="alphabetic">Public : </text></g><g stroke-linecap="round" transform="translate(807.3750768740351 1873.810668231166) rotate(0 163.5 256.99999999999994)"><path d="M32 0 C132.23 0.44, 232.96 2.6, 295 0 M32 0 C97.19 0.87, 162.88 0.77, 295 0 M295 0 C315.77 1.68, 327.51 9.31, 327 32 M295 0 C315.03 -1.48, 325.25 8.97, 327 32 M327 32 C325.49 139.05, 324.12 246.62, 327 482 M327 32 C326.29 189.52, 325.86 347.23, 327 482 M327 482 C328.27 503.22, 316.06 514.39, 295 514 M327 482 C325.53 502.84, 316.49 513.78, 295 514 M295 514 C209.21 512.72, 124.32 512.67, 32 514 M295 514 C219.4 516.73, 142.18 516.43, 32 514 M32 514 C9.57 515.03, 1.03 505.27, 0 482 M32 514 C12.02 514.1, 0.2 502.83, 0 482 M0 482 C-1.74 376.54, -2.46 272.7, 0 32 M0 482 C1.77 383.57, 1.87 284.75, 0 32 M0 32 C-1.27 12.06, 10.31 -0.85, 32 0 M0 32 C-0.06 11.86, 8.94 -1.43, 32 0" stroke="#1e1e1e" stroke-width="2" fill="none"></path></g><g transform="translate(906.3750768740351 1904.810668231166) rotate(0 48.859954833984375 12.5)"><text x="0" y="17.52" font-family="Virgil, Segoe UI Emoji" font-size="20px" fill="#1e1e1e" text-anchor="start" style="white-space: pre;" direction="ltr" dominant-baseline="alphabetic">Connect 4</text></g><g stroke-linecap="round"><g transform="translate(856.3750768740351 1935.810668231166) rotate(0 115 0)"><path d="M-0.44 -0.82 C38.19 -0.82, 192.86 -0.72, 231.19 -0.61 M1.54 1.37 C40.16 1.57, 193.04 0.65, 230.87 0.61" stroke="#1e1e1e" stroke-width="2" fill="none"></path></g></g><mask></mask><g transform="translate(869.3750768740351 1959.810668231166) rotate(0 83.37989807128906 50)"><text x="0" y="17.52" font-family="Virgil, Segoe UI Emoji" font-size="20px" fill="#1e1e1e" text-anchor="start" style="white-space: pre;" direction="ltr" dominant-baseline="alphabetic">Private: </text><text x="0" y="42.519999999999996" font-family="Virgil, Segoe UI Emoji" font-size="20px" fill="#1e1e1e" text-anchor="start" style="white-space: pre;" direction="ltr" dominant-baseline="alphabetic">- Board</text><text x="0" y="67.52" font-family="Virgil, Segoe UI Emoji" font-size="20px" fill="#1e1e1e" text-anchor="start" style="white-space: pre;" direction="ltr" dominant-baseline="alphabetic">- player notation</text><text x="0" y="92.52" font-family="Virgil, Segoe UI Emoji" font-size="20px" fill="#1e1e1e" text-anchor="start" style="white-space: pre;" direction="ltr" dominant-baseline="alphabetic">- turn </text></g><g stroke-linecap="round"><g transform="translate(853.3750768740351 2067.810668231166) rotate(0 116.5 -0.5)"><path d="M1.19 -0.61 C40.02 -0.67, 193.99 -1.24, 232.54 -1.15 M0.36 1.68 C39.03 1.89, 192.83 0.91, 231.35 0.31" stroke="#1e1e1e" stroke-width="1" fill="none"></path></g></g><mask></mask><g transform="translate(861.3750768740351 2104.810668231166) rotate(0 109.93986511230469 125)"><text x="0" y="17.52" font-family="Virgil, Segoe UI Emoji" font-size="20px" fill="#1e1e1e" text-anchor="start" style="white-space: pre;" direction="ltr" dominant-baseline="alphabetic">- Connect4 and init</text><text x="0" y="42.519999999999996" font-family="Virgil, Segoe UI Emoji" font-size="20px" fill="#1e1e1e" text-anchor="start" style="white-space: pre;" direction="ltr" dominant-baseline="alphabetic">- play_next</text><text x="0" y="67.52" font-family="Virgil, Segoe UI Emoji" font-size="20px" fill="#1e1e1e" text-anchor="start" style="white-space: pre;" direction="ltr" dominant-baseline="alphabetic">- get_turn</text><text x="0" y="92.52" font-family="Virgil, Segoe UI Emoji" font-size="20px" fill="#1e1e1e" text-anchor="start" style="white-space: pre;" direction="ltr" dominant-baseline="alphabetic">- get player notations</text><text x="0" y="117.52" font-family="Virgil, Segoe UI Emoji" font-size="20px" fill="#1e1e1e" text-anchor="start" style="white-space: pre;" direction="ltr" dominant-baseline="alphabetic">- render board </text><text x="0" y="142.52" font-family="Virgil, Segoe UI Emoji" font-size="20px" fill="#1e1e1e" text-anchor="start" style="white-space: pre;" direction="ltr" dominant-baseline="alphabetic">- get current player</text><text x="0" y="167.52" font-family="Virgil, Segoe UI Emoji" font-size="20px" fill="#1e1e1e" text-anchor="start" style="white-space: pre;" direction="ltr" dominant-baseline="alphabetic">- get next player</text><text x="0" y="192.52" font-family="Virgil, Segoe UI Emoji" font-size="20px" fill="#1e1e1e" text-anchor="start" style="white-space: pre;" direction="ltr" dominant-baseline="alphabetic">- get valid moves </text><text x="0" y="217.52" font-family="Virgil, Segoe UI Emoji" font-size="20px" fill="#1e1e1e" text-anchor="start" style="white-space: pre;" direction="ltr" dominant-baseline="alphabetic">- simulation </text><text x="0" y="242.52" font-family="Virgil, Segoe UI Emoji" font-size="20px" fill="#1e1e1e" text-anchor="start" style="white-space: pre;" direction="ltr" dominant-baseline="alphabetic">- get board key</text></g><g transform="translate(864.3750768740351 2075.810668231166) rotate(0 39.62995147705078 12.5)"><text x="0" y="17.52" font-family="Virgil, Segoe UI Emoji" font-size="20px" fill="#1e1e1e" text-anchor="start" style="white-space: pre;" direction="ltr" dominant-baseline="alphabetic">Public : </text></g><g stroke-linecap="round"><g transform="translate(466.3459677519271 1694.5396432464154) rotate(0 -99.74415987135222 86.00053719355702)"><path d="M1 -0.49 C-32.11 28.03, -165.73 142.97, -199.33 171.7 M0.06 -1.8 C-33.12 26.85, -167.14 143.93, -200.2 173.08" stroke="#1e1e1e" stroke-width="1" fill="none"></path></g><g transform="translate(466.3459677519271 1694.5396432464154) rotate(0 -99.74415987135222 86.00053719355702)"><path d="M-188.18 151.16 C-191.8 156.8, -194.38 159.96, -200.2 173.08 M-188.18 151.16 C-191.93 157.58, -195.54 164.41, -200.2 173.08" stroke="#1e1e1e" stroke-width="1" fill="none"></path></g><g transform="translate(466.3459677519271 1694.5396432464154) rotate(0 -99.74415987135222 86.00053719355702)"><path d="M-176.9 164.02 C-183.3 166.66, -188.6 166.71, -200.2 173.08 M-176.9 164.02 C-184.02 166.7, -190.89 169.81, -200.2 173.08" stroke="#1e1e1e" stroke-width="1" fill="none"></path></g></g><mask></mask><g stroke-linecap="round"><g transform="translate(645.8805736464188 1688.6085717158253) rotate(0 113.29919998736244 86.00053719355684)"><path d="M-0.97 -1.1 C37.03 27.24, 189.34 142.09, 227.38 171.01 M0.73 0.94 C38.68 29.31, 189.15 143.8, 226.85 172.03" stroke="#1e1e1e" stroke-width="1" fill="none"></path></g><g transform="translate(645.8805736464188 1688.6085717158253) rotate(0 113.29919998736244 86.00053719355684)"><path d="M202.95 164.69 C207.19 168.04, 213.38 169.77, 226.85 172.03 M202.95 164.69 C210.03 166.09, 219.3 170.08, 226.85 172.03" stroke="#1e1e1e" stroke-width="1" fill="none"></path></g><g transform="translate(645.8805736464188 1688.6085717158253) rotate(0 113.29919998736244 86.00053719355684)"><path d="M213.26 151.04 C215.01 157.74, 218.61 162.91, 226.85 172.03 M213.26 151.04 C217 157.06, 222.84 165.61, 226.85 172.03" stroke="#1e1e1e" stroke-width="1" fill="none"></path></g></g><mask></mask><g stroke-linecap="round"><g transform="translate(939.8170377185872 1696.5166670899455) rotate(0 -147.96464138913962 82.04648950649687)"><path d="M0.88 1.14 C-48.66 28.53, -247.67 136.62, -296.95 163.95 M-0.12 0.7 C-49.32 28.3, -245.63 138.31, -294.78 165.41" stroke="#1e1e1e" stroke-width="1" fill="none"></path></g><g transform="translate(939.8170377185872 1696.5166670899455) rotate(0 -147.96464138913962 82.04648950649687)"><path d="M-278.41 146.51 C-281.84 151.02, -289.26 160.67, -294.78 165.41 M-278.41 146.51 C-283.84 153.6, -291.37 161.11, -294.78 165.41" stroke="#1e1e1e" stroke-width="1" fill="none"></path></g><g transform="translate(939.8170377185872 1696.5166670899455) rotate(0 -147.96464138913962 82.04648950649687)"><path d="M-270.09 161.45 C-276.16 161.21, -286.27 166.04, -294.78 165.41 M-270.09 161.45 C-278.75 162.89, -289.46 164.68, -294.78 165.41" stroke="#1e1e1e" stroke-width="1" fill="none"></path></g></g><mask></mask><g stroke-linecap="round"><g transform="translate(1090.216512445221 1698.4936909334756) rotate(0 79.10417623697424 79.08095374120172)"><path d="M0.47 0.49 C26.68 26.77, 131.81 131.96, 158.23 158.26 M-0.74 -0.29 C25.23 26.15, 130.72 133.19, 157.29 159.85" stroke="#1e1e1e" stroke-width="1" fill="none"></path></g><g transform="translate(1090.216512445221 1698.4936909334756) rotate(0 79.10417623697424 79.08095374120172)"><path d="M134.69 149.18 C144.17 153.19, 152.12 158.57, 157.29 159.85 M134.69 149.18 C140.71 152.72, 148.62 156.79, 157.29 159.85" stroke="#1e1e1e" stroke-width="1" fill="none"></path></g><g transform="translate(1090.216512445221 1698.4936909334756) rotate(0 79.10417623697424 79.08095374120172)"><path d="M146.84 137.14 C151.76 145.78, 155.08 155.74, 157.29 159.85 M146.84 137.14 C148.99 144.31, 153.12 152.13, 157.29 159.85" stroke="#1e1e1e" stroke-width="1" fill="none"></path></g></g><mask></mask><g stroke-linecap="round" transform="translate(461.03392687770145 753.476293726115) rotate(0 337.08256532187255 146.29976442122324)"><path d="M32 0 C260.14 -0.43, 487.79 -1.91, 642.17 0 C663.8 -1.01, 676.07 8.9, 674.17 32 C669.52 81.99, 670.27 132.61, 674.17 260.6 C674.48 283.7, 667.09 290.84, 642.17 292.6 C504.56 293.86, 365.01 295.29, 32 292.6 C10.43 290.72, 1.15 282.8, 0 260.6 C4.8 196.64, 3.82 125.77, 0 32 C2.09 12.94, 10.14 -2.18, 32 0" stroke="none" stroke-width="0" fill="#fefeff"></path><path d="M32 0 C260.62 0.57, 488.49 0.29, 642.17 0 M32 0 C223 1.9, 414.52 1.83, 642.17 0 M642.17 0 C661.98 -1.93, 674.28 9.01, 674.17 32 M642.17 0 C663.26 -1.18, 674.83 9.56, 674.17 32 M674.17 32 C673.44 82.81, 674.16 132.06, 674.17 260.6 M674.17 32 C675.4 115.38, 675.97 197.45, 674.17 260.6 M674.17 260.6 C673.36 283.31, 664.73 292.14, 642.17 292.6 M674.17 260.6 C673.62 282.54, 664.46 293.02, 642.17 292.6 M642.17 292.6 C397.59 292.35, 153.83 291.52, 32 292.6 M642.17 292.6 C457.78 289.78, 272.98 289.88, 32 292.6 M32 292.6 C12.64 291.54, 0.78 283.01, 0 260.6 M32 292.6 C8.59 293.25, -0.29 282.29, 0 260.6 M0 260.6 C-2.59 188.26, -0.73 116.96, 0 32 M0 260.6 C-0.18 205.71, 0.06 150.15, 0 32 M0 32 C0.48 11.53, 11.2 -1.68, 32 0 M0 32 C1.61 9.56, 11.17 0.86, 32 0" stroke="#1e1e1e" stroke-width="1" fill="none"></path></g><g transform="translate(629.0424565550427 832.2760581473383) rotate(0 169.07403564453125 67.5)"><text x="169.07403564453125" y="31.536" font-family="Virgil, Segoe UI Emoji" font-size="36px" fill="#1e1e1e" text-anchor="middle" style="white-space: pre;" direction="ltr" dominant-baseline="alphabetic">Game Engine</text><text x="169.07403564453125" y="76.536" font-family="Virgil, Segoe UI Emoji" font-size="36px" fill="#1e1e1e" text-anchor="middle" style="white-space: pre;" direction="ltr" dominant-baseline="alphabetic">- Game engine init</text><text x="169.07403564453125" y="121.536" font-family="Virgil, Segoe UI Emoji" font-size="36px" fill="#1e1e1e" text-anchor="middle" style="white-space: pre;" direction="ltr" dominant-baseline="alphabetic">- start game loop </text></g><g stroke-linecap="round"><g transform="translate(623.1358872774448 1063.869037160332) rotate(0 -7.657539174103761 36.991038135228564)"><path d="M0.55 0.3 C-2.28 12.49, -13.44 61.05, -16.1 73.52 M-0.63 -0.59 C-3.14 11.74, -11.21 62.48, -13.8 74.81" stroke="#1e1e1e" stroke-width="1" fill="none"></path></g><g transform="translate(623.1358872774448 1063.869037160332) rotate(0 -7.657539174103761 36.991038135228564)"><path d="M-18.02 50.17 C-15.91 57.94, -15.61 68.2, -13.8 74.81 M-18.02 50.17 C-16.54 59.36, -15.07 69.29, -13.8 74.81" stroke="#1e1e1e" stroke-width="1" fill="none"></path></g><g transform="translate(623.1358872774448 1063.869037160332) rotate(0 -7.657539174103761 36.991038135228564)"><path d="M-1.2 53.22 C-5.3 59.94, -11.21 69.08, -13.8 74.81 M-1.2 53.22 C-6.37 61.13, -11.57 69.86, -13.8 74.81" stroke="#1e1e1e" stroke-width="1" fill="none"></path></g></g><mask></mask><g stroke-linecap="round"><g transform="translate(973.3607463568626 1061.8920133168017) rotate(0 5.672909240397871 40.52898879236602)"><path d="M-0.62 -0.65 C1.63 13.06, 10.64 68.5, 12.48 82.23 M1.25 1.63 C3.53 15.03, 10.2 67.7, 12.13 80.72" stroke="#1e1e1e" stroke-width="1" fill="none"></path></g><g transform="translate(973.3607463568626 1061.8920133168017) rotate(0 5.672909240397871 40.52898879236602)"><path d="M0.48 58.6 C1.9 65.29, 7.42 66.62, 12.13 80.72 M0.48 58.6 C4.27 66.76, 8.84 75.23, 12.13 80.72" stroke="#1e1e1e" stroke-width="1" fill="none"></path></g><g transform="translate(973.3607463568626 1061.8920133168017) rotate(0 5.672909240397871 40.52898879236602)"><path d="M17.42 56.29 C15.21 63.38, 17.11 65.21, 12.13 80.72 M17.42 56.29 C15.17 65.12, 13.71 74.41, 12.13 80.72" stroke="#1e1e1e" stroke-width="1" fill="none"></path></g></g><mask></mask><g stroke-linecap="round"><g transform="translate(355.92253720950816 827.9309678554797) rotate(0 42.26791379036388 0.8287826233404303)"><path d="M-0.77 0.2 C13.29 0.4, 69.25 1.7, 83.46 1.95 M1.03 -0.73 C15.52 -0.98, 71.83 -0.65, 85.61 -0.02" stroke="#1e1e1e" stroke-width="1" fill="none"></path></g><g transform="translate(355.92253720950816 827.9309678554797) rotate(0 42.26791379036388 0.8287826233404303)"><path d="M61.94 8.01 C67.6 4.54, 73.13 4.44, 85.61 -0.02 M61.94 8.01 C69.44 6.35, 75.84 3, 85.61 -0.02" stroke="#1e1e1e" stroke-width="1" fill="none"></path></g><g transform="translate(355.92253720950816 827.9309678554797) rotate(0 42.26791379036388 0.8287826233404303)"><path d="M62.31 -9.09 C68 -8.67, 73.44 -4.89, 85.61 -0.02 M62.31 -9.09 C69.69 -5.57, 75.98 -3.74, 85.61 -0.02" stroke="#1e1e1e" stroke-width="1" fill="none"></path></g></g><mask></mask><g stroke-linecap="round"><g transform="translate(775.670819991396 285.94531545404857) rotate(0 -18.20147076934518 29.159828254389367)"><path d="M0.05 0.68 C-6.31 10.69, -30.71 49.58, -36.98 59.11 M-1.39 -0.01 C-7.45 9.75, -28.92 47.58, -34.58 57.4" stroke="#1e1e1e" stroke-width="1" fill="none"></path></g><g transform="translate(775.670819991396 285.94531545404857) rotate(0 -18.20147076934518 29.159828254389367)"><path d="M-30.33 32.76 C-31.09 41.63, -32.6 50.49, -34.58 57.4 M-30.33 32.76 C-30.83 39.6, -33.28 46.23, -34.58 57.4" stroke="#1e1e1e" stroke-width="1" fill="none"></path></g><g transform="translate(775.670819991396 285.94531545404857) rotate(0 -18.20147076934518 29.159828254389367)"><path d="M-15.49 41.25 C-22.1 46.74, -29.54 52.2, -34.58 57.4 M-15.49 41.25 C-19.85 45.76, -26.16 50.18, -34.58 57.4" stroke="#1e1e1e" stroke-width="1" fill="none"></path></g></g><mask></mask><g stroke-linecap="round"><g transform="translate(824.1980937836552 289.2604459474103) rotate(0 33.976044452339806 29.988610877729798)"><path d="M0.92 0.64 C12.48 10.61, 57.07 49.55, 68.15 59.41 M-0.05 -0.06 C11.47 10.09, 56.24 50.47, 67.3 60.65" stroke="#1e1e1e" stroke-width="1" fill="none"></path></g><g transform="translate(824.1980937836552 289.2604459474103) rotate(0 33.976044452339806 29.988610877729798)"><path d="M44.17 51.17 C49.87 53.23, 52.51 53.84, 67.3 60.65 M44.17 51.17 C50.94 54.86, 56.62 57.5, 67.3 60.65" stroke="#1e1e1e" stroke-width="1" fill="none"></path></g><g transform="translate(824.1980937836552 289.2604459474103) rotate(0 33.976044452339806 29.988610877729798)"><path d="M55.67 38.52 C59.01 43.21, 59.33 46.37, 67.3 60.65 M55.67 38.52 C59.19 45.76, 61.6 52.01, 67.3 60.65" stroke="#1e1e1e" stroke-width="1" fill="none"></path></g></g><mask></mask><g stroke-linecap="round"><g transform="translate(637.6191150200395 647.2563559672578) rotate(0 59.717105943127876 48.898174777087604)"><path d="M0.45 -0.37 C10.82 7.33, 42.2 29.98, 62.17 46.49 C82.15 62.99, 110.86 90.27, 120.3 98.66 M-0.78 -1.61 C9.51 6.27, 41.49 31.67, 61.62 48.06 C81.75 64.46, 110.47 88.55, 119.99 96.78" stroke="#1e1e1e" stroke-width="1" fill="none"></path></g><g transform="translate(637.6191150200395 647.2563559672578) rotate(0 59.717105943127876 48.898174777087604)"><path d="M96.55 88.08 C102.88 91.81, 110.54 94.58, 119.99 96.78 M96.55 88.08 C105.61 91.42, 114.14 94.62, 119.99 96.78" stroke="#1e1e1e" stroke-width="1" fill="none"></path></g><g transform="translate(637.6191150200395 647.2563559672578) rotate(0 59.717105943127876 48.898174777087604)"><path d="M107.63 75.05 C110.72 82.67, 115.11 89.28, 119.99 96.78 M107.63 75.05 C112.5 83.16, 116.9 91.21, 119.99 96.78" stroke="#1e1e1e" stroke-width="1" fill="none"></path></g></g><mask></mask><g stroke-linecap="round"><g transform="translate(1023.3723274551583 653.8866169539815) rotate(0 -75.85699517226351 41.43913116702345)"><path d="M-0.52 0.93 C-26.13 14.75, -127.67 69.68, -152.76 83.45 M1.4 0.37 C-23.92 13.78, -125.11 68.09, -150.6 81.62" stroke="#1e1e1e" stroke-width="1" fill="none"></path></g><g transform="translate(1023.3723274551583 653.8866169539815) rotate(0 -75.85699517226351 41.43913116702345)"><path d="M-133.9 63.01 C-138.53 68.19, -145.41 77.97, -150.6 81.62 M-133.9 63.01 C-140.71 70.33, -145.75 76.02, -150.6 81.62" stroke="#1e1e1e" stroke-width="1" fill="none"></path></g><g transform="translate(1023.3723274551583 653.8866169539815) rotate(0 -75.85699517226351 41.43913116702345)"><path d="M-125.85 78.1 C-133.57 77.57, -143.47 81.69, -150.6 81.62 M-125.85 78.1 C-135.44 80.04, -143.35 80.35, -150.6 81.62" stroke="#1e1e1e" stroke-width="1" fill="none"></path></g></g><mask></mask></svg>